<svg version="1.1" viewBox="0.0 0.0 384.0 384.0" fill="none" stroke="none" stroke-linecap="square" stroke-miterlimit="10" xmlns:xlink="http://www.w3.org/1999/xlink" xmlns="http://www.w3.org/2000/svg">
    <clipPath id="p.0">
        <path d="m0 0l384.0 0l0 384.0l-384.0 0l0 -384.0z" clip-rule="nonzero"/>
    </clipPath>
    <g clip-path="url(#p.0)"><path fill="#000000" fill-opacity="0.0" d="m0 0l384.0 0l0 384.0l-384.0 0z" fill-rule="evenodd"/><path fill="#ff8e3c" d="m0 0l384.0 0l0 384.0l-384.0 0z" fill-rule="evenodd"/><path fill="#000000" fill-opacity="0.0" d="m-24.000525 0l384.0 0l0 384.0l-384.0 0z" fill-rule="evenodd"/><path fill="#0d0d0d" d="m98.90768 117.125l20.03125 1.328125l0 10.21875q16.203133 1.359375 36.093758 17.265625l-12.59375 15.40625q-13.0625 -13.0625 -25.421883 -13.75l0.109375 -1.03125l1.03125 30.984375l19.531258 4.046875q20.796875 6.328125 22.65625 24.921875l0 7.671875q-6.21875 29.296875 -42.187508 31.59375l0 10.71875l-19.25 -1.375l0 -9.34375q-22.71875 -1.421875 -42.84375 -22.390625l-3.859375 -5.78125l15.0625 -12.328125q13.859375 20.796875 35.28125 21.53125l-0.5625 3.15625l-3.078125 -35.0q-7.640625 -0.546875 -18.875 -4.5625q-16.796875 -3.734375 -18.625 -26.484375q0 -27.796875 34.734375 -34.75l2.765625 -0.34375l0 -1.015625l0 -10.6875zm1.90625 30.46875q-15.859375 0.65625 -19.5625 11.171875l-1.40625 4.890625q-0.546875 11.015625 19.0625 12.109375l1.8125 -29.984375l0.09375 1.8125zm17.34375 47.984375l0 32.15625q12.531258 0.515625 21.187508 -11.453125q1.640625 -3.296875 0.953125 -9.453125q0.5625 -9.546875 -22.140633 -11.25z" fill-rule="nonzero"/><path fill="#0d0d0d" d="m330.47018 178.89062l0 85.109375l-22.484375 0l0 -85.109375q0 -21.28125 -8.234375 -30.484375q-8.21875 -9.21875 -27.640625 -9.21875q-19.421875 0 -27.609375 9.21875q-8.171875 9.203125 -8.171875 30.484375l0 85.109375l-22.578125 0l0 -85.109375q0 -31.25 14.65625 -46.796875q14.65625 -15.5625 43.703125 -15.5625q29.234375 0 43.796875 15.5625q14.5625 15.5625 14.5625 46.796875zm-69.0 44.765625l22.15625 0l31.0 40.34375l-21.953125 0l-20.25 -16.71875l-19.984375 16.71875l-21.96875 0l31.0 -40.34375z" fill-rule="nonzero"/></g>
    </svg>